<svg xmlns="http://www.w3.org/2000/svg" xmlns:xlink="http://www.w3.org/1999/xlink" version="1.1" viewBox="215.23 223.42 1613.35 1590.25">
<desc>Created with SVGMaker Editor 3.0.0</desc>
<defs>
</defs>
<path transform="translate(0,0)" style="stroke-linecap: round; fill: rgb(8, 86, 166); --darkreader-inline-fill: var(--darkreader-text-0856a6, #6bb8f8);" stroke-linecap="round" d="M 1005.9097 223.46 C 1210.9097 222.289 1408.4897 289.506 1561.8697 427.118 C 1728.7897 576.883 1823.5697 777.37 1828.3597 1002.13 C 1833.2397 1210.71 1754.3597 1412.56 1609.3297 1562.55 C 1459.8897 1718.92 1254.1997 1809.13 1037.9397 1813.15 C 1036.7597 1813.22 1035.5797 1813.28 1034.3997 1813.33 C 1002.1997 1814.62 963.0657 1811.64 931.0567 1807.96 C 757.4137 1788 594.6447 1713.24 466.3647 1594.52 C 314.8447 1453.55 224.9387 1258.58 216.1097 1051.82 C 206.1967 840.063 282.0087 633.245 426.4267 478.063 C 548.5067 345.946 712.1517 259.624 890.1247 233.466 C 930.6627 227.25 965.3037 224.939 1005.9097 223.46 Z" data-darkreader-inline-fill=""/>
<path transform="translate(0,0)" style="stroke-linecap: round; fill: rgb(254, 206, 47); --darkreader-inline-fill: var(--darkreader-text-fece2f, #fed13b);" stroke-linecap="round" d="M 1023.3031 299.452 C 1023.4331 299.448 1023.5631 299.444 1023.6831 299.44 C 1217.5031 300.604 1403.2931 376.979 1541.8831 512.464 C 1674.7831 643.252 1750.2431 821.506 1751.6431 1007.96 C 1753.9831 1198.99 1679.9431 1383.04 1545.9731 1519.23 C 1407.7131 1659.3 1219.0731 1738.1 1022.2631 1738.01 C 839.7461 1737.57 663.7991 1669.87 528.0621 1547.85 C 387.5221 1421.91 302.8511 1245.24 292.7241 1056.8 C 281.6701 869.018 345.6491 684.537 470.5911 543.922 C 576.7281 425.575 718.5461 345.046 874.5591 314.532 C 924.9351 304.961 972.4101 302.238 1023.3031 299.452 Z" data-darkreader-inline-fill=""/>
<path transform="translate(0,0)" style="stroke-linecap: round; fill: rgb(8, 86, 166); --darkreader-inline-fill: var(--darkreader-text-0856a6, #6bb8f8);" stroke-linecap="round" d="M 1011.75 439.418 C 1011.93 439.395 1012.11 439.371 1012.28 439.347 C 1121.81 431.263 1254.87 508.828 1262.85 626.706 C 1266.18 675.88 1255.36 726.668 1248.46 773.559 L 1223.65 944.324 L 1205.35 1072.47 C 1201.83 1097.12 1197.8 1132 1191.48 1155.4 C 1185.69 1177.54 1174.85 1198.03 1159.8 1215.26 C 1128.51 1251.14 1081.08 1270.01 1034.25 1273.01 C 960.634 1278.47 882.073 1239.17 857.331 1166.12 C 848.415 1139.79 845.759 1108.05 841.765 1080.29 L 824.927 966.417 L 798.285 788.908 C 792.301 750.017 785.526 710.527 781.296 671.547 C 775.604 619.101 791.232 566.989 825.231 526.473 C 859.579 485.542 910.095 457.721 962.068 446.145 C 978.838 442.41 994.703 441.012 1011.75 439.418 Z" data-darkreader-inline-fill=""/>
<path transform="translate(0,0)" style="stroke-linecap: round; fill: rgb(226, 45, 68); --darkreader-inline-fill: var(--darkreader-text-e22d44, #e53f54);" stroke-linecap="round" d="M 1010.51 503.421 C 1051.96 499.332 1105.4 515.189 1139.33 538.966 C 1169.86 560.358 1190.27 590.539 1196.59 627.463 C 1203.62 668.617 1188.16 742.556 1181.69 785.741 L 1160.12 930.746 L 1142.85 1048.33 C 1137.73 1083.26 1134.69 1130.89 1114.65 1160.48 C 1097.73 1185.45 1067 1199.26 1037.87 1204.23 C 1005.45 1207.19 976.254 1199 950.644 1178.83 C 915.508 1151.17 914.443 1106.78 908.456 1066.15 L 893.496 968.12 L 866.233 791.945 C 860.052 752.448 854.126 713.611 848.966 674.031 C 835.793 572.977 918.745 512.224 1010.51 503.421 Z" data-darkreader-inline-fill=""/>
<path transform="translate(0,0)" style="stroke-linecap: round; fill: rgb(8, 86, 166); --darkreader-inline-fill: var(--darkreader-text-0856a6, #6bb8f8);" stroke-linecap="round" d="M 1007.53 1307.47 C 1096.95 1299.41 1175.96 1365.39 1183.96 1454.82 C 1191.97 1544.24 1125.94 1623.21 1036.51 1631.16 C 947.153 1639.11 868.265 1573.14 860.267 1483.79 C 852.268 1394.45 918.185 1315.52 1007.53 1307.47 Z" data-darkreader-inline-fill=""/>
<path transform="translate(0,0)" style="stroke-linecap: round; fill: rgb(226, 45, 68); --darkreader-inline-fill: var(--darkreader-text-e22d44, #e53f54);" stroke-linecap="round" d="M 1017.8599 1374.42 C 1070.2099 1369.23 1116.8999 1407.32 1122.3399 1459.64 C 1127.7799 1511.96 1089.9199 1558.84 1037.6199 1564.53 C 984.9759 1570.26 937.7069 1532.08 932.2309 1479.41 C 926.7549 1426.73 965.1589 1379.65 1017.8599 1374.42 Z" data-darkreader-inline-fill=""/>
</svg>